<mxfile host="app.diagrams.net" agent="Mozilla/5.0 (Windows NT 10.0; Win64; x64) AppleWebKit/537.36 (KHTML, like Gecko) Chrome/117.0.0.0 Safari/537.36" version="24.7.12">
  <diagram id="prtHgNgQTEPvFCAcTncT" name="Page-1">
    <mxGraphModel dx="1793" dy="938" grid="1" gridSize="10" guides="1" tooltips="1" connect="1" arrows="1" fold="1" page="1" pageScale="1" pageWidth="827" pageHeight="1169" math="0" shadow="0">
      <root>
        <mxCell id="0" />
        <mxCell id="1" parent="0" />
        <mxCell id="dNxyNK7c78bLwvsdeMH5-11" value="&lt;font style=&quot;vertical-align: inherit; font-size: 13px;&quot;&gt;&lt;font style=&quot;vertical-align: inherit; font-size: 13px;&quot;&gt;&lt;font style=&quot;vertical-align: inherit; font-size: 13px;&quot;&gt;&lt;font style=&quot;vertical-align: inherit; font-size: 13px;&quot;&gt;系統架構圖&lt;/font&gt;&lt;/font&gt;&lt;/font&gt;&lt;/font&gt;" style="swimlane;html=1;startSize=20;horizontal=1;containerType=tree;glass=0;fontSize=13;" parent="1" vertex="1">
          <mxGeometry x="20" y="30" width="2450" height="990" as="geometry">
            <mxRectangle x="20" y="30" width="770" height="120" as="alternateBounds" />
          </mxGeometry>
        </mxCell>
        <mxCell id="FOfV_qy8-DwzanTGBbMc-7" value="&lt;span style=&quot;font-size: 13px;&quot;&gt;&lt;font style=&quot;vertical-align: inherit; font-size: 13px;&quot;&gt;&lt;font style=&quot;vertical-align: inherit; font-size: 13px;&quot;&gt;維修查詢系統&lt;/font&gt;&lt;/font&gt;&lt;/span&gt;" style="shape=rect;html=1;whiteSpace=wrap;align=center;fontSize=13;" vertex="1" parent="dNxyNK7c78bLwvsdeMH5-11">
          <mxGeometry x="915" y="60" width="150" height="60" as="geometry" />
        </mxCell>
        <mxCell id="FOfV_qy8-DwzanTGBbMc-8" value="&lt;font style=&quot;vertical-align: inherit; font-size: 13px;&quot;&gt;&lt;font style=&quot;vertical-align: inherit; font-size: 13px;&quot;&gt;車輛維修管理&lt;/font&gt;&lt;/font&gt;" style="shape=rect;html=1;whiteSpace=wrap;align=center;fontSize=13;" vertex="1" parent="dNxyNK7c78bLwvsdeMH5-11">
          <mxGeometry x="715" y="200" width="120" height="60" as="geometry" />
        </mxCell>
        <mxCell id="FOfV_qy8-DwzanTGBbMc-9" value="會員資料管理" style="shape=rect;html=1;whiteSpace=wrap;align=center;fontSize=13;" vertex="1" parent="dNxyNK7c78bLwvsdeMH5-11">
          <mxGeometry x="1105" y="200" width="120" height="60" as="geometry" />
        </mxCell>
        <mxCell id="FOfV_qy8-DwzanTGBbMc-10" value="" style="rounded=0;html=1;labelBackgroundColor=none;endArrow=none;edgeStyle=elbowEdgeStyle;elbow=vertical;startArrow=sysMLPackCont;startSize=12;fontSize=13;" edge="1" source="FOfV_qy8-DwzanTGBbMc-7" target="FOfV_qy8-DwzanTGBbMc-8" parent="dNxyNK7c78bLwvsdeMH5-11">
          <mxGeometry relative="1" as="geometry" />
        </mxCell>
        <mxCell id="FOfV_qy8-DwzanTGBbMc-11" value="" style="rounded=0;html=1;labelBackgroundColor=none;endArrow=none;edgeStyle=elbowEdgeStyle;elbow=vertical;startArrow=sysMLPackCont;startSize=12;fontSize=13;" edge="1" source="FOfV_qy8-DwzanTGBbMc-7" target="FOfV_qy8-DwzanTGBbMc-9" parent="dNxyNK7c78bLwvsdeMH5-11">
          <mxGeometry relative="1" as="geometry" />
        </mxCell>
        <mxCell id="FOfV_qy8-DwzanTGBbMc-19" value="" style="rounded=0;html=1;labelBackgroundColor=none;endArrow=none;edgeStyle=elbowEdgeStyle;elbow=vertical;startArrow=sysMLPackCont;startSize=12;fontSize=13;" edge="1" target="FOfV_qy8-DwzanTGBbMc-20" source="FOfV_qy8-DwzanTGBbMc-7" parent="dNxyNK7c78bLwvsdeMH5-11">
          <mxGeometry relative="1" as="geometry">
            <mxPoint x="944.5" y="350" as="sourcePoint" />
          </mxGeometry>
        </mxCell>
        <mxCell id="FOfV_qy8-DwzanTGBbMc-20" value="日誌管理" style="shape=rect;html=1;whiteSpace=wrap;align=center;fontSize=13;" vertex="1" parent="dNxyNK7c78bLwvsdeMH5-11">
          <mxGeometry x="1495" y="200" width="120" height="60" as="geometry" />
        </mxCell>
        <mxCell id="FOfV_qy8-DwzanTGBbMc-21" value="" style="rounded=0;html=1;labelBackgroundColor=none;endArrow=none;edgeStyle=elbowEdgeStyle;elbow=vertical;startArrow=sysMLPackCont;startSize=12;fontSize=13;" edge="1" target="FOfV_qy8-DwzanTGBbMc-22" source="FOfV_qy8-DwzanTGBbMc-7" parent="dNxyNK7c78bLwvsdeMH5-11">
          <mxGeometry relative="1" as="geometry">
            <mxPoint x="932.5" y="130" as="sourcePoint" />
          </mxGeometry>
        </mxCell>
        <mxCell id="FOfV_qy8-DwzanTGBbMc-22" value="資料庫層" style="shape=rect;html=1;whiteSpace=wrap;align=center;fontSize=13;" vertex="1" parent="dNxyNK7c78bLwvsdeMH5-11">
          <mxGeometry x="1885" y="200" width="120" height="60" as="geometry" />
        </mxCell>
        <mxCell id="FOfV_qy8-DwzanTGBbMc-24" value="" style="rounded=0;html=1;labelBackgroundColor=none;endArrow=none;edgeStyle=elbowEdgeStyle;elbow=vertical;startArrow=sysMLPackCont;startSize=12;fontSize=13;" edge="1" target="FOfV_qy8-DwzanTGBbMc-25" source="FOfV_qy8-DwzanTGBbMc-7" parent="dNxyNK7c78bLwvsdeMH5-11">
          <mxGeometry relative="1" as="geometry">
            <mxPoint x="939" y="150" as="sourcePoint" />
          </mxGeometry>
        </mxCell>
        <mxCell id="FOfV_qy8-DwzanTGBbMc-25" value="使用者管理" style="shape=rect;html=1;whiteSpace=wrap;align=center;fontSize=13;" vertex="1" parent="dNxyNK7c78bLwvsdeMH5-11">
          <mxGeometry x="325" y="200" width="120" height="60" as="geometry" />
        </mxCell>
        <mxCell id="FOfV_qy8-DwzanTGBbMc-26" value="" style="rounded=0;html=1;labelBackgroundColor=none;endArrow=none;edgeStyle=elbowEdgeStyle;elbow=vertical;startArrow=sysMLPackCont;startSize=12;fontSize=13;" edge="1" target="FOfV_qy8-DwzanTGBbMc-27" source="FOfV_qy8-DwzanTGBbMc-25" parent="dNxyNK7c78bLwvsdeMH5-11">
          <mxGeometry relative="1" as="geometry">
            <mxPoint x="939" y="150" as="sourcePoint" />
          </mxGeometry>
        </mxCell>
        <mxCell id="FOfV_qy8-DwzanTGBbMc-27" value="權限管理" style="shape=rect;html=1;whiteSpace=wrap;align=center;fontSize=13;" vertex="1" parent="dNxyNK7c78bLwvsdeMH5-11">
          <mxGeometry x="325" y="300" width="120" height="60" as="geometry" />
        </mxCell>
        <mxCell id="FOfV_qy8-DwzanTGBbMc-28" value="" style="rounded=0;html=1;labelBackgroundColor=none;endArrow=none;edgeStyle=elbowEdgeStyle;elbow=vertical;startArrow=sysMLPackCont;startSize=12;fontSize=13;" edge="1" target="FOfV_qy8-DwzanTGBbMc-29" source="FOfV_qy8-DwzanTGBbMc-25" parent="dNxyNK7c78bLwvsdeMH5-11">
          <mxGeometry relative="1" as="geometry">
            <mxPoint x="655" y="290" as="sourcePoint" />
          </mxGeometry>
        </mxCell>
        <mxCell id="FOfV_qy8-DwzanTGBbMc-29" value=" 身份驗證" style="shape=rect;html=1;whiteSpace=wrap;align=center;fontSize=13;" vertex="1" parent="dNxyNK7c78bLwvsdeMH5-11">
          <mxGeometry x="140" y="300" width="120" height="60" as="geometry" />
        </mxCell>
        <mxCell id="FOfV_qy8-DwzanTGBbMc-30" value="" style="rounded=0;html=1;labelBackgroundColor=none;endArrow=none;edgeStyle=elbowEdgeStyle;elbow=vertical;startArrow=sysMLPackCont;startSize=12;fontSize=13;" edge="1" target="FOfV_qy8-DwzanTGBbMc-31" source="FOfV_qy8-DwzanTGBbMc-25" parent="dNxyNK7c78bLwvsdeMH5-11">
          <mxGeometry relative="1" as="geometry">
            <mxPoint x="655" y="290" as="sourcePoint" />
          </mxGeometry>
        </mxCell>
        <mxCell id="FOfV_qy8-DwzanTGBbMc-31" value="使用者資料管理" style="shape=rect;html=1;whiteSpace=wrap;align=center;fontSize=13;" vertex="1" parent="dNxyNK7c78bLwvsdeMH5-11">
          <mxGeometry x="455" y="300" width="120" height="60" as="geometry" />
        </mxCell>
        <mxCell id="FOfV_qy8-DwzanTGBbMc-32" value="" style="rounded=0;html=1;labelBackgroundColor=none;endArrow=none;edgeStyle=elbowEdgeStyle;elbow=vertical;startArrow=sysMLPackCont;startSize=12;fontSize=13;" edge="1" target="FOfV_qy8-DwzanTGBbMc-33" source="FOfV_qy8-DwzanTGBbMc-8" parent="dNxyNK7c78bLwvsdeMH5-11">
          <mxGeometry relative="1" as="geometry">
            <mxPoint x="969" y="150" as="sourcePoint" />
          </mxGeometry>
        </mxCell>
        <mxCell id="FOfV_qy8-DwzanTGBbMc-33" value="&lt;font style=&quot;vertical-align: inherit; font-size: 13px;&quot;&gt;&lt;font style=&quot;vertical-align: inherit; font-size: 13px;&quot;&gt;車輛維修管理&lt;/font&gt;&lt;/font&gt;" style="shape=rect;html=1;whiteSpace=wrap;align=center;fontSize=13;" vertex="1" parent="dNxyNK7c78bLwvsdeMH5-11">
          <mxGeometry x="715" y="300" width="120" height="60" as="geometry" />
        </mxCell>
        <mxCell id="FOfV_qy8-DwzanTGBbMc-34" value="" style="rounded=0;html=1;labelBackgroundColor=none;endArrow=none;edgeStyle=elbowEdgeStyle;elbow=vertical;startArrow=sysMLPackCont;startSize=12;fontSize=13;" edge="1" target="FOfV_qy8-DwzanTGBbMc-35" source="FOfV_qy8-DwzanTGBbMc-8" parent="dNxyNK7c78bLwvsdeMH5-11">
          <mxGeometry relative="1" as="geometry">
            <mxPoint x="795" y="290" as="sourcePoint" />
          </mxGeometry>
        </mxCell>
        <mxCell id="FOfV_qy8-DwzanTGBbMc-35" value="&lt;font style=&quot;vertical-align: inherit; font-size: 13px;&quot;&gt;&lt;font style=&quot;vertical-align: inherit; font-size: 13px;&quot;&gt;車輛維修管理&lt;/font&gt;&lt;/font&gt;" style="shape=rect;html=1;whiteSpace=wrap;align=center;fontSize=13;" vertex="1" parent="dNxyNK7c78bLwvsdeMH5-11">
          <mxGeometry x="585" y="300" width="120" height="60" as="geometry" />
        </mxCell>
        <mxCell id="FOfV_qy8-DwzanTGBbMc-36" value="" style="rounded=0;html=1;labelBackgroundColor=none;endArrow=none;edgeStyle=elbowEdgeStyle;elbow=vertical;startArrow=sysMLPackCont;startSize=12;fontSize=13;" edge="1" target="FOfV_qy8-DwzanTGBbMc-37" source="FOfV_qy8-DwzanTGBbMc-8" parent="dNxyNK7c78bLwvsdeMH5-11">
          <mxGeometry relative="1" as="geometry">
            <mxPoint x="795" y="290" as="sourcePoint" />
          </mxGeometry>
        </mxCell>
        <mxCell id="FOfV_qy8-DwzanTGBbMc-37" value="&lt;font style=&quot;vertical-align: inherit; font-size: 13px;&quot;&gt;&lt;font style=&quot;vertical-align: inherit; font-size: 13px;&quot;&gt;車輛維修管理&lt;/font&gt;&lt;/font&gt;" style="shape=rect;html=1;whiteSpace=wrap;align=center;fontSize=13;" vertex="1" parent="dNxyNK7c78bLwvsdeMH5-11">
          <mxGeometry x="845" y="300" width="120" height="60" as="geometry" />
        </mxCell>
        <mxCell id="FOfV_qy8-DwzanTGBbMc-38" value="" style="rounded=0;html=1;labelBackgroundColor=none;endArrow=none;edgeStyle=elbowEdgeStyle;elbow=vertical;startArrow=sysMLPackCont;startSize=12;fontSize=13;" edge="1" target="FOfV_qy8-DwzanTGBbMc-39" source="FOfV_qy8-DwzanTGBbMc-9" parent="dNxyNK7c78bLwvsdeMH5-11">
          <mxGeometry relative="1" as="geometry">
            <mxPoint x="1010" y="150" as="sourcePoint" />
          </mxGeometry>
        </mxCell>
        <mxCell id="FOfV_qy8-DwzanTGBbMc-39" value="會員資料管理" style="shape=rect;html=1;whiteSpace=wrap;align=center;fontSize=13;" vertex="1" parent="dNxyNK7c78bLwvsdeMH5-11">
          <mxGeometry x="1105" y="300" width="120" height="60" as="geometry" />
        </mxCell>
        <mxCell id="FOfV_qy8-DwzanTGBbMc-40" value="" style="rounded=0;html=1;labelBackgroundColor=none;endArrow=none;edgeStyle=elbowEdgeStyle;elbow=vertical;startArrow=sysMLPackCont;startSize=12;fontSize=13;" edge="1" target="FOfV_qy8-DwzanTGBbMc-41" source="FOfV_qy8-DwzanTGBbMc-9" parent="dNxyNK7c78bLwvsdeMH5-11">
          <mxGeometry relative="1" as="geometry">
            <mxPoint x="1095" y="290" as="sourcePoint" />
          </mxGeometry>
        </mxCell>
        <mxCell id="FOfV_qy8-DwzanTGBbMc-41" value="會員資料管理" style="shape=rect;html=1;whiteSpace=wrap;align=center;fontSize=13;" vertex="1" parent="dNxyNK7c78bLwvsdeMH5-11">
          <mxGeometry x="975" y="300" width="120" height="60" as="geometry" />
        </mxCell>
        <mxCell id="FOfV_qy8-DwzanTGBbMc-42" value="" style="rounded=0;html=1;labelBackgroundColor=none;endArrow=none;edgeStyle=elbowEdgeStyle;elbow=vertical;startArrow=sysMLPackCont;startSize=12;fontSize=13;" edge="1" target="FOfV_qy8-DwzanTGBbMc-43" source="FOfV_qy8-DwzanTGBbMc-9" parent="dNxyNK7c78bLwvsdeMH5-11">
          <mxGeometry relative="1" as="geometry">
            <mxPoint x="1095" y="290" as="sourcePoint" />
          </mxGeometry>
        </mxCell>
        <mxCell id="FOfV_qy8-DwzanTGBbMc-43" value="會員資料管理" style="shape=rect;html=1;whiteSpace=wrap;align=center;fontSize=13;" vertex="1" parent="dNxyNK7c78bLwvsdeMH5-11">
          <mxGeometry x="1235" y="300" width="120" height="60" as="geometry" />
        </mxCell>
        <mxCell id="FOfV_qy8-DwzanTGBbMc-45" value="" style="rounded=0;html=1;labelBackgroundColor=none;endArrow=none;edgeStyle=elbowEdgeStyle;elbow=vertical;startArrow=sysMLPackCont;startSize=12;fontSize=13;" edge="1" target="FOfV_qy8-DwzanTGBbMc-46" source="FOfV_qy8-DwzanTGBbMc-20" parent="dNxyNK7c78bLwvsdeMH5-11">
          <mxGeometry relative="1" as="geometry">
            <mxPoint x="1010" y="150" as="sourcePoint" />
          </mxGeometry>
        </mxCell>
        <mxCell id="FOfV_qy8-DwzanTGBbMc-46" value="日誌管理" style="shape=rect;html=1;whiteSpace=wrap;align=center;fontSize=13;" vertex="1" parent="dNxyNK7c78bLwvsdeMH5-11">
          <mxGeometry x="1495" y="300" width="120" height="60" as="geometry" />
        </mxCell>
        <mxCell id="FOfV_qy8-DwzanTGBbMc-47" value="" style="rounded=0;html=1;labelBackgroundColor=none;endArrow=none;edgeStyle=elbowEdgeStyle;elbow=vertical;startArrow=sysMLPackCont;startSize=12;fontSize=13;" edge="1" target="FOfV_qy8-DwzanTGBbMc-48" source="FOfV_qy8-DwzanTGBbMc-20" parent="dNxyNK7c78bLwvsdeMH5-11">
          <mxGeometry relative="1" as="geometry">
            <mxPoint x="1555" y="290" as="sourcePoint" />
          </mxGeometry>
        </mxCell>
        <mxCell id="FOfV_qy8-DwzanTGBbMc-48" value="日誌管理" style="shape=rect;html=1;whiteSpace=wrap;align=center;fontSize=13;" vertex="1" parent="dNxyNK7c78bLwvsdeMH5-11">
          <mxGeometry x="1365" y="300" width="120" height="60" as="geometry" />
        </mxCell>
        <mxCell id="FOfV_qy8-DwzanTGBbMc-49" value="" style="rounded=0;html=1;labelBackgroundColor=none;endArrow=none;edgeStyle=elbowEdgeStyle;elbow=vertical;startArrow=sysMLPackCont;startSize=12;fontSize=13;" edge="1" target="FOfV_qy8-DwzanTGBbMc-50" source="FOfV_qy8-DwzanTGBbMc-20" parent="dNxyNK7c78bLwvsdeMH5-11">
          <mxGeometry relative="1" as="geometry">
            <mxPoint x="1555" y="290" as="sourcePoint" />
          </mxGeometry>
        </mxCell>
        <mxCell id="FOfV_qy8-DwzanTGBbMc-50" value="日誌管理" style="shape=rect;html=1;whiteSpace=wrap;align=center;fontSize=13;" vertex="1" parent="dNxyNK7c78bLwvsdeMH5-11">
          <mxGeometry x="1625" y="300" width="120" height="60" as="geometry" />
        </mxCell>
        <mxCell id="FOfV_qy8-DwzanTGBbMc-51" value="" style="rounded=0;html=1;labelBackgroundColor=none;endArrow=none;edgeStyle=elbowEdgeStyle;elbow=vertical;startArrow=sysMLPackCont;startSize=12;fontSize=13;" edge="1" target="FOfV_qy8-DwzanTGBbMc-52" source="FOfV_qy8-DwzanTGBbMc-22" parent="dNxyNK7c78bLwvsdeMH5-11">
          <mxGeometry relative="1" as="geometry">
            <mxPoint x="1010" y="150" as="sourcePoint" />
          </mxGeometry>
        </mxCell>
        <mxCell id="FOfV_qy8-DwzanTGBbMc-52" value="資料庫層" style="shape=rect;html=1;whiteSpace=wrap;align=center;fontSize=13;" vertex="1" parent="dNxyNK7c78bLwvsdeMH5-11">
          <mxGeometry x="1885" y="300" width="120" height="60" as="geometry" />
        </mxCell>
        <mxCell id="FOfV_qy8-DwzanTGBbMc-53" value="" style="rounded=0;html=1;labelBackgroundColor=none;endArrow=none;edgeStyle=elbowEdgeStyle;elbow=vertical;startArrow=sysMLPackCont;startSize=12;fontSize=13;" edge="1" target="FOfV_qy8-DwzanTGBbMc-54" source="FOfV_qy8-DwzanTGBbMc-22" parent="dNxyNK7c78bLwvsdeMH5-11">
          <mxGeometry relative="1" as="geometry">
            <mxPoint x="1945" y="290" as="sourcePoint" />
          </mxGeometry>
        </mxCell>
        <mxCell id="FOfV_qy8-DwzanTGBbMc-54" value="資料庫層" style="shape=rect;html=1;whiteSpace=wrap;align=center;fontSize=13;" vertex="1" parent="dNxyNK7c78bLwvsdeMH5-11">
          <mxGeometry x="1755" y="300" width="120" height="60" as="geometry" />
        </mxCell>
        <mxCell id="FOfV_qy8-DwzanTGBbMc-55" value="" style="rounded=0;html=1;labelBackgroundColor=none;endArrow=none;edgeStyle=elbowEdgeStyle;elbow=vertical;startArrow=sysMLPackCont;startSize=12;fontSize=13;" edge="1" target="FOfV_qy8-DwzanTGBbMc-56" source="FOfV_qy8-DwzanTGBbMc-22" parent="dNxyNK7c78bLwvsdeMH5-11">
          <mxGeometry relative="1" as="geometry">
            <mxPoint x="1945" y="290" as="sourcePoint" />
          </mxGeometry>
        </mxCell>
        <mxCell id="FOfV_qy8-DwzanTGBbMc-56" value="資料庫層" style="shape=rect;html=1;whiteSpace=wrap;align=center;fontSize=13;" vertex="1" parent="dNxyNK7c78bLwvsdeMH5-11">
          <mxGeometry x="2015" y="300" width="120" height="60" as="geometry" />
        </mxCell>
        <mxCell id="FOfV_qy8-DwzanTGBbMc-57" value="" style="rounded=0;html=1;labelBackgroundColor=none;endArrow=none;edgeStyle=elbowEdgeStyle;elbow=vertical;startArrow=sysMLPackCont;startSize=12;fontSize=13;" edge="1" target="FOfV_qy8-DwzanTGBbMc-58" source="FOfV_qy8-DwzanTGBbMc-29" parent="dNxyNK7c78bLwvsdeMH5-11">
          <mxGeometry relative="1" as="geometry">
            <mxPoint x="405" y="290" as="sourcePoint" />
          </mxGeometry>
        </mxCell>
        <mxCell id="FOfV_qy8-DwzanTGBbMc-58" value=" 身份驗證" style="shape=rect;html=1;whiteSpace=wrap;align=center;fontSize=13;" vertex="1" parent="dNxyNK7c78bLwvsdeMH5-11">
          <mxGeometry x="140" y="400" width="120" height="60" as="geometry" />
        </mxCell>
        <mxCell id="FOfV_qy8-DwzanTGBbMc-59" value="" style="rounded=0;html=1;labelBackgroundColor=none;endArrow=none;edgeStyle=elbowEdgeStyle;elbow=vertical;startArrow=sysMLPackCont;startSize=12;fontSize=13;" edge="1" target="FOfV_qy8-DwzanTGBbMc-60" source="FOfV_qy8-DwzanTGBbMc-29" parent="dNxyNK7c78bLwvsdeMH5-11">
          <mxGeometry relative="1" as="geometry">
            <mxPoint x="275" y="390" as="sourcePoint" />
          </mxGeometry>
        </mxCell>
        <mxCell id="FOfV_qy8-DwzanTGBbMc-60" value=" 身份驗證" style="shape=rect;html=1;whiteSpace=wrap;align=center;fontSize=13;" vertex="1" parent="dNxyNK7c78bLwvsdeMH5-11">
          <mxGeometry x="270" y="400" width="120" height="60" as="geometry" />
        </mxCell>
        <mxCell id="FOfV_qy8-DwzanTGBbMc-61" value="" style="rounded=0;html=1;labelBackgroundColor=none;endArrow=none;edgeStyle=elbowEdgeStyle;elbow=vertical;startArrow=sysMLPackCont;startSize=12;fontSize=13;" edge="1" target="FOfV_qy8-DwzanTGBbMc-62" source="FOfV_qy8-DwzanTGBbMc-29" parent="dNxyNK7c78bLwvsdeMH5-11">
          <mxGeometry relative="1" as="geometry">
            <mxPoint x="275" y="390" as="sourcePoint" />
          </mxGeometry>
        </mxCell>
        <mxCell id="FOfV_qy8-DwzanTGBbMc-62" value=" 身份驗證" style="shape=rect;html=1;whiteSpace=wrap;align=center;fontSize=13;" vertex="1" parent="dNxyNK7c78bLwvsdeMH5-11">
          <mxGeometry x="10" y="400" width="120" height="60" as="geometry" />
        </mxCell>
      </root>
    </mxGraphModel>
  </diagram>
</mxfile>
